:SAMPLES-PER-SECOND 30
:FULLY-SPECIFIED
:DEGREES
1
root  74.071 40.3416 -13.4788 -18.6957 -87.5124 16.8986
RightUpLeg  -0.261369 -10.155 -8.69764
RightLeg  4.76046 -5.34352 3.65932
RightFoot  -0.716399 -0.188213 2.04894
RightToes  1.16414e-010 0 -3.6325e-017
Spine  4.12195 0.648556 -2.24876
Spine1  4.13728 0.351946 1.5598
HEad  3.06689 -0.859883 1.81078
LeftShoulder1  0.806467 -0.452704 -13.2258
LeftArm  -22.7738 11.4761 -4.27483
LeftForeArm  6.98924 -1.61379 0.689905
LeftHand  -0.244104 0.0205437 5.32207
RightShoulder  0.739365 0.51183 11.2525
RightArm  -25.2038 -10.0362 8.56427
RightForeArm  2.90481 3.84554 1.09242
RightHand  -3.36192 11.4111 -23.2626
LeftUpLeg  -1.3792 5.38825 3.27416
LeftLeg  5.28747 8.99143 -2.88787
LeftFoot  -1.90419 0.0762999 -0.808949
LeftToes  -6.45774e-011 3.08606e-011 -5.1752e-012
2
root  74.0644 40.3416 -13.4739 -18.0712 -87.5133 16.2636
RightUpLeg  -0.258278 -10.0889 -8.64555
RightLeg  4.7924 -5.42465 3.59395
RightFoot  -0.732142 -0.188171 2.04829
RightToes  1.16414e-010 0 -3.6325e-017
Spine  4.32606 0.676065 -2.14811
Spine1  3.77477 0.430683 1.33779
HEad  1.99968 -1.32299 1.97656
LeftShoulder1  0.829243 -0.62672 -12.9003
LeftArm  -22.6439 11.6554 -4.34422
LeftForeArm  6.98904 -1.62814 0.65213
LeftHand  -0.244104 0.0205437 5.32207
RightShoulder  0.743781 0.475356 11.5614
RightArm  -25.0031 -10.0804 8.31868
RightForeArm  2.55495 3.85073 1.15285
RightHand  -3.30617 11.0999 -23.3052
LeftUpLeg  -1.3677 5.41637 3.30285
LeftLeg  5.30211 8.94546 -2.89802
LeftFoot  -1.91646 0.0752796 -0.79309
LeftToes  -6.45774e-011 3.08606e-011 -5.1752e-012
3
root  74.0451 40.3416 -13.4632 -17.2744 -87.5213 15.4562
RightUpLeg  -0.239436 -10.0177 -8.58892
RightLeg  4.82904 -5.50546 3.52028
RightFoot  -0.757807 -0.186461 2.02176
RightToes  1.16414e-010 0 -3.6325e-017
Spine  4.51387 0.732255 -2.16921
Spine1  3.35886 0.496602 1.30479
HEad  0.618717 -1.92185 2.10105
LeftShoulder1  0.85994 -0.839162 -12.6073
LeftArm  -22.4931 11.8628 -4.3837
LeftForeArm  7.00022 -1.56018 0.632664
LeftHand  -0.244104 0.0205437 5.32207
RightShoulder  0.753599 0.471868 11.8532
RightArm  -24.6289 -10.1497 7.95988
RightForeArm  2.34493 3.87316 1.25239
RightHand  -3.21232 10.6738 -23.2456
LeftUpLeg  -1.33233 5.46629 3.34401
LeftLeg  5.31604 8.88787 -2.9227
LeftFoot  -1.95182 0.0734696 -0.764961
LeftToes  -6.45774e-011 3.08606e-011 -5.1752e-012
4
root  74.0152 40.3416 -13.4492 -16.8347 -87.5455 15.0252
RightUpLeg  -0.20275 -10.0087 -8.57875
RightLeg  4.82384 -5.50604 3.50885
RightFoot  -0.766399 -0.181317 1.94196
RightToes  1.16414e-010 0 -3.6325e-017
Spine  4.6442 0.826351 -2.47488
Spine1  2.9753 0.487686 1.78772
HEad  -1.09331 -2.50163 1.99269
LeftShoulder1  0.893835 -0.982668 -12.7483
LeftArm  -22.3293 12.02 -4.18558
LeftForeArm  7.02533 -1.46026 0.626601
LeftHand  -0.244104 0.0205437 5.32207
RightShoulder  0.746888 0.449989 11.7807
RightArm  -24.187 -10.2446 7.70596
RightForeArm  2.34343 3.996 1.38292
RightHand  -3.19054 10.5314 -23.2917
LeftUpLeg  -1.28518 5.52022 3.37438
LeftLeg  5.31138 8.84959 -2.96168
LeftFoot  -1.99155 0.0706184 -0.720648
LeftToes  -6.45774e-011 3.08606e-011 -5.1752e-012
5
root  73.9854 40.3415 -13.4369 -16.5634 -87.579 14.7723
RightUpLeg  -0.142787 -10.0153 -8.58655
RightLeg  4.74813 -5.46152 3.53062
RightFoot  -0.747181 -0.181946 1.95171
RightToes  1.16414e-010 0 -3.6325e-017
Spine  4.87585 0.932459 -2.8632
Spine1  2.47684 0.45351 2.44411
HEad  -2.62777 -3.00255 1.83693
LeftShoulder1  0.930195 -1.07927 -13.1617
LeftArm  -22.095 12.1834 -3.73927
LeftForeArm  6.94633 -1.46552 0.580737
LeftHand  -0.244104 0.0205437 5.32207
RightShoulder  0.720855 0.373822 11.4477
RightArm  -23.9979 -10.3784 7.64325
RightForeArm  2.19428 4.18121 1.46638
RightHand  -3.25774 10.6743 -23.559
LeftUpLeg  -1.24657 5.56878 3.40328
LeftLeg  5.30804 8.82544 -3.00256
LeftFoot  -2.02835 0.0686315 -0.689768
LeftToes  -6.45774e-011 3.08606e-011 -5.1752e-012
6
root  73.9632 40.3412 -13.428 -16.1206 -87.618 14.3226
RightUpLeg  -0.0457901 -9.98131 -8.57493
RightLeg  4.61985 -5.4234 3.53419
RightFoot  -0.714782 -0.195429 2.1609
RightToes  1.16414e-010 0 -3.6325e-017
Spine  5.18912 1.0022 -3.07808
Spine1  1.98586 0.435218 2.85369
HEad  -2.50476 -3.106 1.82428
LeftShoulder1  0.955933 -1.12622 -13.5464
LeftArm  -21.9033 12.3122 -3.23071
LeftForeArm  6.77443 -1.56538 0.527349
LeftHand  -0.244104 0.0205437 5.32207
RightShoulder  0.69871 0.329486 11.0465
RightArm  -24.2971 -10.5348 7.76574
RightForeArm  2.03476 4.27116 1.39975
RightHand  -3.31333 10.8226 -23.7349
LeftUpLeg  -1.2103 5.60286 3.44103
LeftLeg  5.33771 8.81907 -3.02071
LeftFoot  -2.07937 0.0684522 -0.686983
LeftToes  -6.45774e-011 3.08606e-011 -5.1752e-012
7
root  73.9457 40.3409 -13.4182 -15.7663 -87.6627 13.9272
RightUpLeg  0.064273 -9.94587 -8.56611
RightLeg  4.52507 -5.3852 3.52651
RightFoot  -0.699799 -0.20758 2.34941
RightToes  1.16414e-010 0 -3.6325e-017
Spine  5.38682 1.02338 -3.13571
Spine1  1.76569 0.411078 3.05764
HEad  -2.57645 -3.20437 1.80068
LeftShoulder1  0.960131 -1.08557 -13.844
LeftArm  -21.9073 12.3253 -2.82882
LeftForeArm  6.7614 -1.6262 0.548068
LeftHand  -0.244104 0.0205437 5.32207
RightShoulder  0.692143 0.378565 10.6036
RightArm  -24.7314 -10.6654 7.97288
RightForeArm  2.30256 4.2052 1.24815
RightHand  -3.29449 10.8636 -23.5486
LeftUpLeg  -1.15474 5.61019 3.46172
LeftLeg  5.38795 8.85011 -3.00541
LeftFoot  -2.14205 0.067627 -0.674158
LeftToes  -6.45774e-011 3.08606e-011 -5.1752e-012
